<svg width="120" height="40" viewBox="0 0 120 40" fill="none" xmlns="http://www.w3.org/2000/svg">
  <defs>
    <linearGradient id="logoGradient" x1="0%" y1="0%" x2="100%" y2="100%">
      <stop offset="0%" style="stop-color:#8B5CF6;stop-opacity:1" />
      <stop offset="100%" style="stop-color:#7C3AED;stop-opacity:1" />
    </linearGradient>
  </defs>
  
  <!-- T letter -->
  <path d="M10 8h20v4H18v20h-4V12H10V8z" fill="url(#logoGradient)"/>
  
  <!-- V letter -->
  <path d="M32 8l-6 20h4l4-14 4 14h4L32 8z" fill="url(#logoGradient)"/>
  
  <!-- i letter -->
  <circle cx="42" cy="12" r="2" fill="url(#logoGradient)"/>
  <rect x="40" y="18" width="4" height="20" fill="url(#logoGradient)"/>
  
  <!-- x letter -->
  <path d="M48 8l6 10-6 10h4l4-8 4 8h4l-6-10 6-10h-4l-4 8-4-8h-4z" fill="url(#logoGradient)"/>
  
  <!-- o letter -->
  <circle cx="68" cy="18" r="8" fill="none" stroke="url(#logoGradient)" stroke-width="3"/>
  
  <!-- Brand name -->
  <text x="85" y="25" font-family="Inter, sans-serif" font-size="14" font-weight="600" fill="#1F2937">TruVixo</text>
</svg>

