<?xml version="1.0" encoding="UTF-8"?>
<svg version="1.1" xmlns="http://www.w3.org/2000/svg" width="1563" height="1563">
<path d="M0 0 C515.79 0 1031.58 0 1563 0 C1563 515.79 1563 1031.58 1563 1563 C1047.21 1563 531.42 1563 0 1563 C0 1047.21 0 531.42 0 0 Z " fill="#FEFEFE" transform="translate(0,0)"/>
<path d="M0 0 C3.16054417 2.48418772 5.99644355 5.13684627 8.75 8.0625 C7.11256066 12.23865799 4.05218208 15.0273153 0.92333984 18.11621094 C0.03045006 19.0095388 0.03045006 19.0095388 -0.88047791 19.9209137 C-2.84530177 21.88434643 -4.81711039 23.84060373 -6.7890625 25.796875 C-8.15427479 27.1583564 -9.51904561 28.52028061 -10.88339233 29.88262939 C-14.47273159 33.46433824 -18.0680368 37.0399999 -21.66461182 40.61444092 C-25.33471319 44.26407121 -28.99914829 47.91938092 -32.6640625 51.57421875 C-39.85383652 58.74255329 -47.04992516 65.904513 -54.25 73.0625 C-52.61256066 77.23865799 -49.55218208 80.0273153 -46.42333984 83.11621094 C-45.82807999 83.71176285 -45.23282013 84.30731476 -44.61952209 84.9209137 C-42.65469823 86.88434643 -40.68288961 88.84060373 -38.7109375 90.796875 C-37.34572521 92.1583564 -35.98095439 93.52028061 -34.61660767 94.88262939 C-31.02726841 98.46433824 -27.4319632 102.0399999 -23.83538818 105.61444092 C-20.16528681 109.26407121 -16.50085171 112.91938092 -12.8359375 116.57421875 C-5.64616348 123.74255329 1.54992516 130.904513 8.75 138.0625 C3.95150758 147.94070117 -5.59759218 153.26856758 -15.66796875 156.9453125 C-26.67537142 159.79240026 -39.08628624 158.72963919 -49.203125 153.55078125 C-61.49187832 146.08015936 -69.60164928 136.11137294 -73.25 122.0625 C-76.27078767 108.8808811 -73.23425117 96.10247949 -66.16796875 84.7421875 C-63.55560212 81.09232292 -60.64317771 77.99156526 -57.25 75.0625 C-58.62961752 71.98384612 -60.25123131 69.81951256 -62.5625 67.375 C-72.62613585 56.07437558 -73.90682932 44.62951475 -73.25 30.0625 C-72.48258856 19.55041126 -67.00999504 9.7368035 -59.25 2.65234375 C-41.58241099 -11.39200923 -18.76266881 -13.71931987 0 0 Z " fill="#FDCD4E" transform="translate(451.25,707.9375)"/>
<path d="M0 0 C8.21940471 6.81916541 15.43088003 16.88302354 16.79638672 27.72265625 C16.95446178 30.47811155 16.99925966 33.20495819 16.98046875 35.96484375 C16.97474854 36.93768311 16.96902832 37.91052246 16.96313477 38.9128418 C16.61334255 53.01406143 10.34042385 62.5490672 0.48046875 72.21484375 C1.85646438 75.29219359 3.46651731 77.41538216 5.79296875 79.83984375 C15.86230445 91.10491307 17.48011308 104.26013523 16.71875 118.78857422 C15.62668783 129.90836298 9.21022609 138.9281446 1.29296875 146.40234375 C-9.82292593 155.34989126 -22.44905356 158.35475533 -36.41796875 156.9375 C-47.13065 155.38585163 -57.79558475 148.59653742 -64.51953125 140.21484375 C-64.51953125 135.66056852 -63.65864856 134.88867842 -60.58493042 131.78256226 C-60.00518463 131.21719757 -59.42543884 130.65183289 -58.828125 130.06933594 C-58.22340363 129.46403046 -57.61868225 128.85872498 -56.99563599 128.2350769 C-54.9921022 126.23433245 -52.97476703 124.24813137 -50.95703125 122.26171875 C-49.5661068 120.87825362 -48.17606218 119.49390339 -46.78686523 118.10870361 C-43.12622758 114.4633464 -39.45373723 110.83015942 -35.77868652 107.19934082 C-32.03145159 103.49300617 -28.29549935 99.77533758 -24.55859375 96.05859375 C-17.22326513 88.7661786 -9.87537061 81.48656515 -2.51953125 74.21484375 C-4.14588634 70.08834089 -7.13512607 67.34587502 -10.23852539 64.30053711 C-10.82242538 63.71955765 -11.40632538 63.13857819 -12.00791931 62.53999329 C-13.27379301 61.28171919 -14.54197166 60.02576065 -15.81218147 58.77186394 C-17.82104402 56.78853891 -19.82358285 54.79902309 -21.8245697 52.80775452 C-26.07150279 48.58367048 -30.32620549 44.36746567 -34.58203125 40.15234375 C-39.51681839 35.26471176 -44.44839125 30.37392795 -49.37161064 25.4746418 C-51.34690334 23.51233827 -53.32811261 21.55614228 -55.30958557 19.6000824 C-56.51666174 18.4002694 -57.72345906 17.20017578 -58.92993164 15.99975586 C-59.48423859 15.45578156 -60.03854553 14.91180725 -60.60964966 14.35134888 C-62.97905739 11.98260485 -64.4441946 10.44085369 -65.51953125 7.21484375 C-47.59299502 -12.51436093 -21.96441377 -15.56238309 0 0 Z " fill="#C81C70" transform="translate(526.51953125,708.78515625)"/>
<path d="M0 0 C14.50962597 6.67442795 20.93315958 24.25067014 26.24658203 38.29492188 C29.79578023 48.09208724 33.25591638 57.94314905 36 68 C37.98258828 65.02611758 38.95377433 62.54753283 40.1015625 59.1796875 C40.5052002 58.01236084 40.90883789 56.84503418 41.32470703 55.64233398 C41.75380371 54.39911377 42.18290039 53.15589355 42.625 51.875 C57.58893878 9.20553061 57.58893878 9.20553061 74 1 C79.81734049 0.39820616 83.38952756 1.03307396 88.23828125 4.3671875 C92.80122583 8.59625809 94.8649292 14.87263482 95.25 20.9375 C94.78441633 47.26414007 74.47468383 73.51813504 60 94 C59.5364209 94.66386719 59.0728418 95.32773437 58.59521484 96.01171875 C52.93639123 104.08874781 46.70863474 112.77412775 37 116 C31.33245342 116.6297274 27.45999523 115.47117412 23 112 C14.89653172 104.53054391 11.45309484 93.79603003 7.36157227 83.84863281 C5.0928088 78.39942326 2.60583061 73.10861352 -0.03149414 67.82885742 C-19.63219335 28.39261818 -19.63219335 28.39261818 -16 11 C-12.89294076 3.73560798 -8.23208516 -1.04771993 0 0 Z " fill="#020202" transform="translate(880,719)"/>
<path d="M0 0 C3.99056283 2.1487646 6.32189198 3.79313012 8 8 C9.21557924 16.14595955 7.70886519 28.58226962 4 36 C3.7605013 39.24430167 3.81480323 42.49783343 3.8125 45.75 C3.79413086 47.09191406 3.79413086 47.09191406 3.77539062 48.4609375 C3.76450148 53.38283229 4.06628533 57.38354285 6 62 C8.28836222 62.41986946 8.28836222 62.41986946 11 62 C15.40390747 58.31004864 17.53893262 54.40871712 19.875 49.3125 C28.79539828 30.76044246 28.79539828 30.76044246 37 27 C41.11940796 26.41151315 43.34513871 26.69876381 47.125 28.4375 C53.3638466 33.9982111 57.32085173 42.96925564 58.25605774 51.27375793 C58.32403435 53.61266987 58.30299333 55.93055923 58.23828125 58.26953125 C58.22597977 59.12899857 58.21367828 59.98846588 58.20100403 60.87397766 C58.15446507 63.58357749 58.08148159 66.29123984 58 69 C57.9756488 69.86687439 57.95129761 70.73374878 57.9262085 71.62689209 C57.77276737 76.78885578 57.56195174 81.94617917 57.31030273 87.10424805 C57.18573192 89.72469288 57.08017858 92.34552572 56.97460938 94.96679688 C56.89438467 96.66932567 56.81304636 98.37180245 56.73046875 100.07421875 C56.6880732 101.22285652 56.6880732 101.22285652 56.64482117 102.3946991 C56.24162035 109.84399609 54.28807004 116.76223247 50 122.9375 C49.505 123.66839844 49.01 124.39929688 48.5 125.15234375 C46.53787397 127.56923337 44.7206033 128.82471812 41.6875 129.5625 C37.29972382 128.64412824 35.42957033 125.60060978 33 122 C27.95819711 113.643517 24.46392006 100.72602174 25 91 C24.40832031 91.40992188 23.81664062 91.81984375 23.20703125 92.2421875 C22.41683594 92.78101563 21.62664063 93.31984375 20.8125 93.875 C20.03519531 94.40867187 19.25789062 94.94234375 18.45703125 95.4921875 C12.11231986 99.38576238 6.32557384 99.78800994 -1 99 C-9.12329593 96.28244169 -15.35808199 88.40873542 -19.125 81 C-24.80076498 69.36702715 -25.20201327 57.62897238 -25.3125 44.875 C-25.33006348 43.79130127 -25.34762695 42.70760254 -25.36572266 41.59106445 C-25.35474345 27.09301969 -21.42260214 14.49937609 -11.74609375 3.59375 C-8.08476225 0.25186353 -4.9229524 -0.59075429 0 0 Z " fill="#020202" transform="translate(800,735)"/>
<path d="M0 0 C0.86431641 -0.02449219 1.72863281 -0.04898438 2.61914062 -0.07421875 C10.09881431 -0.10808897 15.17196775 1.90774634 20.9375 6.625 C31.31966739 19.31431569 33.65658815 39.33260157 32.43554688 55.18212891 C30.81808494 69.48138391 25.16627418 82.82609611 14.1875 92.375 C5.34537699 97.85134 -2.42799542 100.37676607 -12.8125 99.375 C-22.54259051 96.64620859 -30.67802361 89.97830419 -35.8125 81.375 C-43.41284982 65.8992877 -44.59858884 46.78276249 -39.0703125 30.44921875 C-34.0209119 18.10798188 -27.27293849 7.94528579 -14.8125 2.375 C-14.1009375 2.01019531 -13.389375 1.64539063 -12.65625 1.26953125 C-8.44605173 -0.05483057 -4.38832938 0.00645817 0 0 Z " fill="#020202" transform="translate(1143.8125,735.625)"/>
<path d="M0 0 C0.76401123 0.00008057 1.52802246 0.00016113 2.31518555 0.00024414 C8.48628733 0.06077637 14.43175843 0.80761474 20.5390625 1.69140625 C27.97918251 2.60126613 35.53980839 2.54084163 43.02661133 2.58178711 C53.47155818 2.78334719 64.13197685 4.25475944 72.04296875 11.625 C74.70012916 14.89535128 75.6515529 17.41234504 75.25 21.625 C74.76186615 25.1165927 74.29760028 26.20695241 72.0625 29.125 C67.88278599 32.25978551 64.44225193 33.44676076 59.23046875 33.3828125 C58.29912109 33.37636719 57.36777344 33.36992188 56.40820312 33.36328125 C55.44849609 33.34652344 54.48878906 33.32976563 53.5 33.3125 C52.52095703 33.30347656 51.54191406 33.29445313 50.53320312 33.28515625 C48.12604939 33.26167182 45.71940257 33.2288284 43.3125 33.1875 C43.43222168 33.73245117 43.55194336 34.27740234 43.67529297 34.83886719 C47.66816347 53.80210309 49.68508161 73.31619035 49.6875 92.6875 C49.6889502 93.9137207 49.69040039 95.13994141 49.69189453 96.40332031 C49.55026778 107.8193916 47.57114373 118.28556016 41.5 128.125 C37.52280237 131.87492919 33.19164573 133.34679317 27.8125 133.75 C23.44770327 133.57868545 21.06267644 132.1006969 17.8203125 129.28125 C12.32085276 121.6446945 12.88262893 113.40198358 13 104.375 C13.00876488 102.88370942 13.01721904 101.39241699 13.02539062 99.90112305 C13.21410842 77.65353528 14.32031084 55.41066286 15.3125 33.1875 C14.74853516 33.20321045 14.18457031 33.2189209 13.60351562 33.23510742 C11.00661565 33.29811574 8.40987725 33.33669598 5.8125 33.375 C4.4821875 33.41270508 4.4821875 33.41270508 3.125 33.45117188 C-3.07930837 33.51960175 -9.36007855 33.20274262 -14.21240234 28.80566406 C-18.51374526 23.84939696 -20.16303518 19.89422844 -20.00390625 13.43359375 C-19.33778365 8.70494566 -16.54272148 5.95928524 -13.125 2.875 C-8.87388854 -0.06807716 -4.98651515 -0.00498929 0 0 Z " fill="#020202" transform="translate(602.6875,701.8125)"/>
<path d="M0 0 C3.71683959 2.12390834 5.34699228 4.13364296 7 8 C8.98680753 16.67522065 5.35559906 23.38480144 0.93359375 30.5625 C-4.30325391 38.65832362 -10.13702827 46.35144701 -16 54 C-14.02884303 57.52837098 -11.75809985 60.59946117 -9.17871094 63.70678711 C5.31309759 81.26188462 5.31309759 81.26188462 4.796875 90.72265625 C4 94 4 94 2 97 C-4.4481554 96.83879612 -7.74097546 93.4089902 -12 89 C-16.34987163 84.0998434 -20.65368443 79.17119445 -24.171875 73.62890625 C-24.77515625 72.76136719 -25.3784375 71.89382813 -26 71 C-26.66 71 -27.32 71 -28 71 C-29.27493966 72.62938721 -29.27493966 72.62938721 -30.50390625 74.76953125 C-30.9927832 75.57108643 -31.48166016 76.3726416 -31.98535156 77.19848633 C-32.50581055 78.06111084 -33.02626953 78.92373535 -33.5625 79.8125 C-48.66154944 104.22051648 -48.66154944 104.22051648 -60 108 C-63.06359904 108.40159538 -65.9440839 108.49323558 -69 108 C-71.75569447 105.81840855 -73.43588747 104.12822506 -75 101 C-76.04301955 91.85122854 -74.142582 85.09067658 -70 77 C-69.69416992 76.39671875 -69.38833984 75.7934375 -69.07324219 75.171875 C-64.46180321 66.19530537 -59.16242431 58.09786429 -52.72241211 50.31542969 C-52.22362549 49.6918457 -51.72483887 49.06826172 -51.2109375 48.42578125 C-50.76024902 47.88348877 -50.30956055 47.34119629 -49.84521484 46.7824707 C-48.60400943 44.16489685 -49.08484773 42.70402585 -50 40 C-51.47841173 38.02309547 -51.47841173 38.02309547 -53.421875 36.29296875 C-54.11796875 35.62330078 -54.8140625 34.95363281 -55.53125 34.26367188 C-56.2634375 33.57853516 -56.995625 32.89339844 -57.75 32.1875 C-65.17033465 25.21425386 -71.66319967 18.91080983 -72.1875 8.27734375 C-72 6 -72 6 -70.5625 2.875 C-67.70401089 0.7834226 -65.68066785 0.19920586 -62.12890625 0.48046875 C-52.01496436 2.94864173 -44.37923067 15.56573397 -39.17578125 23.93359375 C-38.78777344 24.61550781 -38.39976563 25.29742188 -38 26 C-37.52433594 25.30777344 -37.52433594 25.30777344 -37.0390625 24.6015625 C-28.7854597 13.06475858 -15.78184468 -3.51281649 0 0 Z " fill="#020202" transform="translate(1091,740)"/>
<path d="M0 0 C5.49106854 1.96411298 7.45081771 7.08729015 10 12 C11.14088081 14.64650419 12.08745823 17.2623747 13 20 C13.61875 19.12988281 13.61875 19.12988281 14.25 18.2421875 C19.34972605 11.34389735 24.70131162 5.76622946 33 3 C42.10806505 1.82915756 47.68137399 4.09153758 55.0625 9.0625 C61.20870455 14.48463114 66.15084833 23.0007986 67.30078125 31.125 C67.32991036 35.78565808 66.65885399 39.01171902 64 43 C61.73534549 44.71801377 60.04830367 44.99121752 57.25 45.5 C52.47294158 44.76506794 49.65426005 42.02676085 46 39 C41.78921476 35.59553534 38.67260396 34.13382975 33.29296875 34.44921875 C26.78601815 36.01221711 23.16881956 41.41501121 19.79760742 46.83984375 C12.78749245 58.78530184 9.98449501 71.5812963 8.54296875 85.25 C8.46256348 85.99411133 8.3821582 86.73822266 8.29931641 87.50488281 C8.1462248 88.95625436 8.00326462 90.40874618 7.87255859 91.86230469 C7.22435564 98.14763815 5.94993729 104.5380436 1.25 109.0625 C-2 111 -2 111 -5.5 111.3125 C-11.55742517 109.04096556 -13.78223052 104.64410722 -16.4140625 98.9296875 C-20.99717303 87.59251935 -22.39082294 77.25249034 -22.375 65.0625 C-22.37338867 63.75796875 -22.37177734 62.4534375 -22.37011719 61.109375 C-22.20440916 42.50695779 -21.47773661 17.4123395 -10 2 C-6.29873141 -0.46751239 -4.37776468 -0.30721156 0 0 Z " fill="#030303" transform="translate(703,724)"/>
<path d="M0 0 C8.21940471 6.81916541 15.43088003 16.88302354 16.79638672 27.72265625 C16.95446178 30.47811155 16.99925966 33.20495819 16.98046875 35.96484375 C16.97474854 36.93768311 16.96902832 37.91052246 16.96313477 38.9128418 C16.66621376 50.88265724 12.44200829 59.38056274 4.48046875 68.21484375 C3.83207031 68.97796875 3.18367187 69.74109375 2.515625 70.52734375 C1.84402344 71.08421875 1.17242188 71.64109375 0.48046875 72.21484375 C-4.04764672 71.65013318 -6.49002169 68.65895531 -9.55737305 65.54931641 C-10.15131866 64.95902145 -10.74526428 64.3687265 -11.35720825 63.76054382 C-13.3185308 61.80732742 -15.26878782 59.84345928 -17.21875 57.87890625 C-18.57776145 56.51937624 -19.93729114 55.16036409 -21.2973175 53.80184937 C-24.14575337 50.95332378 -26.98894791 48.09969837 -29.82836914 45.2421875 C-33.47181161 41.57604731 -37.12623387 37.92109351 -40.78441143 34.26966286 C-43.59257612 31.46483623 -46.39573567 28.65505172 -49.19730568 25.84363937 C-50.54321473 24.49387605 -51.89048105 23.14546473 -53.23911095 21.79841995 C-55.12101744 19.91688346 -56.99630463 18.02899469 -58.86987305 16.13916016 C-59.43038864 15.58112198 -59.99090424 15.0230838 -60.56840515 14.44813538 C-62.93409938 12.04950365 -64.43892521 10.45666186 -65.51953125 7.21484375 C-47.59299502 -12.51436093 -21.96441377 -15.56238309 0 0 Z " fill="#D4282C" transform="translate(526.51953125,708.78515625)"/>
<path d="M0 0 C3.16054417 2.48418772 5.99644355 5.13684627 8.75 8.0625 C7.10606624 12.27842931 3.98644614 15.09272614 0.83154297 18.20800781 C-0.07597717 19.11596603 -0.07597717 19.11596603 -1.00183105 20.04226685 C-2.99911999 22.0381645 -5.00339558 24.02688799 -7.0078125 26.015625 C-8.39544502 27.39952668 -9.7826361 28.78387112 -11.16940308 30.16864014 C-14.817926 33.8095322 -18.47241552 37.44437778 -22.12817383 41.07800293 C-25.85859789 44.78795688 -29.58335643 48.50358927 -33.30859375 52.21875 C-40.61685747 59.50557344 -47.93143616 66.78602265 -55.25 74.0625 C-56.37922015 73.10526564 -57.50694575 72.14626801 -58.6340332 71.18652344 C-59.26219437 70.65267029 -59.89035553 70.11881714 -60.53755188 69.56878662 C-67.33783679 63.58718749 -71.59914637 54.91996469 -73.25 46.0625 C-73.98597694 30.55563702 -72.57918822 18.64875841 -62.62109375 5.9921875 C-46.10913389 -11.75319587 -19.54775509 -14.29337732 0 0 Z " fill="#602EB6" transform="translate(451.25,707.9375)"/>
<path d="M0 0 C5.10311278 3.35347411 6.32418633 9.79296846 7.52172852 15.47583008 C7.95970847 18.04192734 8.34014404 20.6075839 8.6875 23.1875 C8.8127002 24.11602783 8.93790039 25.04455566 9.06689453 26.0012207 C10.6090647 38.08155366 9.98548792 49.30471468 8.6875 61.375 C8.57003418 62.49350342 8.45256836 63.61200684 8.33154297 64.7644043 C7.49514721 71.89406394 6.53095457 78.47474184 2.25 84.4375 C-0.93451572 86.64896925 -3.13159955 87.06786667 -7 87 C-12.49844079 83.37602766 -13.69466594 78.11228683 -15 72 C-15.97444663 64.64285721 -16.16253489 57.28689016 -16.125 49.875 C-16.12016602 48.85599609 -16.11533203 47.83699219 -16.11035156 46.78710938 C-16.08546887 43.52449024 -16.04500523 40.26240052 -16 37 C-15.98743164 35.87368164 -15.97486328 34.74736328 -15.96191406 33.58691406 C-15.9148954 30.22364001 -15.83744653 26.86244419 -15.75 23.5 C-15.73598145 22.46858887 -15.72196289 21.43717773 -15.70751953 20.37451172 C-15.45489217 12.73410509 -13.96076645 7.11659626 -8.625 1.5 C-5.39682345 -0.34467231 -3.66113639 -0.62317215 0 0 Z " fill="#040404" transform="translate(997,748)"/>
<path d="M0 0 C5.10823495 2.55411747 8.01197655 5.7134125 10 11 C10.53712227 14.4017744 10.77552951 16.66351436 9.01171875 19.703125 C5.78004701 23.82525737 3.20626745 25.66426365 -1.875 26.4375 C-6.01132532 25.85841446 -8.408922 24.15668205 -11 21 C-13.93065946 15.8521375 -14.66934124 10.83283082 -14 5 C-10.10072665 -1.10886159 -6.85443879 -1.62409277 0 0 Z " fill="#D42A2E" transform="translate(994,717)"/>
<path d="M0 0 C2.31 0 4.62 0 7 0 C8.98 4.29 10.96 8.58 13 13 C14.65 8.71 16.3 4.42 18 0 C20.31 0 22.62 0 25 0 C25 7.26 25 14.52 25 22 C23.35 22 21.7 22 20 22 C19.505 17.05 19.505 17.05 19 12 C17.68 15.3 16.36 18.6 15 22 C13.35 22 11.7 22 10 22 C8.68 18.37 7.36 14.74 6 11 C5.67 14.63 5.34 18.26 5 22 C3.35 22 1.7 22 0 22 C0 14.74 0 7.48 0 0 Z " fill="#060606" transform="translate(1176,701)"/>
<path d="M0 0 C0.08138426 2.87557703 0.14067851 5.74882262 0.1875 8.625 C0.22520508 9.83736328 0.22520508 9.83736328 0.26367188 11.07421875 C0.32582285 16.17059854 -0.21680404 19.55529915 -3 24 C-4 25 -4 25 -7 25.125 C-10 25 -10 25 -11 24 C-11.48313567 18.4264349 -10.2858126 14.58066568 -7.6875 9.75 C-7.37876953 9.13898437 -7.07003906 8.52796875 -6.75195312 7.8984375 C-2.65614765 0 -2.65614765 0 0 0 Z " fill="#F1F1F1" transform="translate(1155,774)"/>
<path d="M0 0 C5.61 0 11.22 0 17 0 C17 1.32 17 2.64 17 4 C15.02 4 13.04 4 11 4 C11 9.94 11 15.88 11 22 C9.35 22 7.7 22 6 22 C6 16.06 6 10.12 6 4 C4.02 4 2.04 4 0 4 C0 2.68 0 1.36 0 0 Z " fill="#000000" transform="translate(1156,701)"/>
</svg>
