<svg xmlns="http://www.w3.org/2000/svg" fill="none" viewBox="0 0 488.91999999999996 139.58689458689457" style="max-height: 500px" width="488.91999999999996" height="139.58689458689457">
<path fill="#41B883" d="M474.137 74.5734L479.422 79.5559L483.789 48.4564L453 54.6436L463.106 64.1725L470.287 62.7766L469.249 69.9647L474.137 74.5734Z"/>
<path fill="#CA2D92" d="M453 54.6436L483.789 48.4564L479.422 79.5559L474.137 74.5734L476.758 55.9137L458.218 59.5637L453 54.6436Z"/>
<path fill="#000080" d="M458.219 59.564L476.809 55.8599L474.138 74.5737L469.25 69.9649L470.287 62.7769L463.107 64.1728L458.219 59.564Z"/>
<path fill="#CA2D92" d="M130.092 136.047C132.853 136.047 135.092 133.809 135.092 131.047V126.871C135.092 124.11 132.853 121.871 130.092 121.871H43.019C40.2576 121.871 38.019 119.632 38.019 116.871V64.5478C38.019 63.0933 38.6524 61.7108 39.754 60.761L83.6533 22.911C85.5294 21.2934 88.3072 21.2934 90.1833 22.911L131.717 58.7221C133.64 60.3806 136.502 60.3335 138.37 58.6126L142.207 55.0768C144.405 53.052 144.348 49.5641 142.085 47.6127L90.1833 2.8625C88.3072 1.24487 85.5294 1.24486 83.6533 2.86247L4.72501 70.9146C2.41166 72.9092 2.41166 76.4937 4.72501 78.4882L9.23556 82.3773C10.8007 83.7267 13.118 83.7267 14.6831 82.3773C17.3864 80.0465 21.578 81.967 21.578 85.5363V131.047C21.578 133.809 23.8166 136.047 26.578 136.047H130.092Z"/>
<g filter="url(#filter0_d_228_1016)">
<path fill="#000080" d="M210.58 100.577H218.552L222.559 105.732L226.502 110.325L233.932 119.639H225.18L220.068 113.357L217.447 109.631L210.58 100.577ZM234.603 93.8182C234.603 98.656 233.686 102.772 231.852 106.165C230.032 109.559 227.549 112.151 224.4 113.942C221.267 115.718 217.743 116.607 213.829 116.607C209.887 116.607 206.349 115.711 203.215 113.92C200.081 112.13 197.604 109.538 195.785 106.144C193.965 102.75 193.055 98.6416 193.055 93.8182C193.055 88.9803 193.965 84.8646 195.785 81.4709C197.604 78.0772 200.081 75.4922 203.215 73.7159C206.349 71.9252 209.887 71.0298 213.829 71.0298C217.743 71.0298 221.267 71.9252 224.4 73.7159C227.549 75.4922 230.032 78.0772 231.852 81.4709C233.686 84.8646 234.603 88.9803 234.603 93.8182ZM225.093 93.8182C225.093 90.6844 224.624 88.0417 223.685 85.8899C222.761 83.7382 221.454 82.1063 219.765 80.9943C218.075 79.8823 216.097 79.3264 213.829 79.3264C211.562 79.3264 209.584 79.8823 207.894 80.9943C206.204 82.1063 204.89 83.7382 203.951 85.8899C203.027 88.0417 202.565 90.6844 202.565 93.8182C202.565 96.9519 203.027 99.5947 203.951 101.746C204.89 103.898 206.204 105.53 207.894 106.642C209.584 107.754 211.562 108.31 213.829 108.31C216.097 108.31 218.075 107.754 219.765 106.642C221.454 105.53 222.761 103.898 223.685 101.746C224.624 99.5947 225.093 96.9519 225.093 93.8182ZM268.953 71.6364H278.333V100.447C278.333 103.682 277.56 106.512 276.015 108.938C274.484 111.364 272.34 113.256 269.582 114.614C266.823 115.957 263.61 116.628 259.942 116.628C256.26 116.628 253.039 115.957 250.281 114.614C247.523 113.256 245.378 111.364 243.847 108.938C242.317 106.512 241.551 103.682 241.551 100.447V71.6364H250.931V99.6452C250.931 101.335 251.299 102.837 252.036 104.151C252.786 105.465 253.841 106.498 255.198 107.249C256.556 108 258.137 108.375 259.942 108.375C261.762 108.375 263.343 108 264.686 107.249C266.044 106.498 267.091 105.465 267.827 104.151C268.578 102.837 268.953 101.335 268.953 99.6452V71.6364ZM293.697 116H283.646L298.961 71.6364H311.048L326.341 116H316.29L305.178 81.7741H304.831L293.697 116ZM293.069 98.5621H316.81V105.884H293.069V98.5621ZM345.799 116V71.6364H363.302C366.667 71.6364 369.533 72.279 371.902 73.5643C374.27 74.8351 376.075 76.6042 377.317 78.8714C378.574 81.1243 379.202 83.7237 379.202 86.6697C379.202 89.6158 378.566 92.2152 377.296 94.468C376.025 96.7209 374.184 98.4755 371.772 99.7319C369.375 100.988 366.472 101.616 363.064 101.616H351.908V94.0998H361.547C363.353 94.0998 364.84 93.7893 366.01 93.1683C367.194 92.5329 368.075 91.6592 368.653 90.5472C369.245 89.4208 369.541 88.1283 369.541 86.6697C369.541 85.1967 369.245 83.9115 368.653 82.8139C368.075 81.7019 367.194 80.8427 366.01 80.2361C364.826 79.6152 363.324 79.3047 361.504 79.3047H355.179V116H345.799ZM385.294 116V71.6364H402.797C406.148 71.6364 409.007 72.2357 411.375 73.4343C413.758 74.6185 415.57 76.3009 416.812 78.4815C418.069 80.6477 418.697 83.1966 418.697 86.1282C418.697 89.0742 418.062 91.6087 416.791 93.7315C415.52 95.84 413.679 97.4574 411.267 98.5838C408.87 99.7102 405.967 100.273 402.559 100.273H390.84V92.7351H401.043C402.833 92.7351 404.321 92.4896 405.505 91.9986C406.689 91.5076 407.57 90.7711 408.148 89.7891C408.74 88.8071 409.036 87.5868 409.036 86.1282C409.036 84.6552 408.74 83.4132 408.148 82.4023C407.57 81.3915 406.682 80.6261 405.483 80.1062C404.299 79.5719 402.804 79.3047 400.999 79.3047H394.674V116H385.294ZM409.252 95.8111L420.278 116H409.924L399.136 95.8111H409.252ZM466.093 93.8182C466.093 98.656 465.176 102.772 463.342 106.165C461.523 109.559 459.039 112.151 455.891 113.942C452.757 115.718 449.233 116.607 445.32 116.607C441.377 116.607 437.839 115.711 434.705 113.92C431.571 112.13 429.095 109.538 427.275 106.144C425.456 102.75 424.546 98.6416 424.546 93.8182C424.546 88.9803 425.456 84.8646 427.275 81.4709C429.095 78.0772 431.571 75.4922 434.705 73.7159C437.839 71.9252 441.377 71.0298 445.32 71.0298C449.233 71.0298 452.757 71.9252 455.891 73.7159C459.039 75.4922 461.523 78.0772 463.342 81.4709C465.176 84.8646 466.093 88.9803 466.093 93.8182ZM456.584 93.8182C456.584 90.6844 456.114 88.0417 455.176 85.8899C454.251 83.7382 452.945 82.1063 451.255 80.9943C449.565 79.8823 447.587 79.3264 445.32 79.3264C443.052 79.3264 441.074 79.8823 439.384 80.9943C437.695 82.1063 436.38 83.7382 435.442 85.8899C434.517 88.0417 434.055 90.6844 434.055 93.8182C434.055 96.9519 434.517 99.5947 435.442 101.746C436.38 103.898 437.695 105.53 439.384 106.642C441.074 107.754 443.052 108.31 445.32 108.31C447.587 108.31 449.565 107.754 451.255 106.642C452.945 105.53 454.251 103.898 455.176 101.746C456.114 99.5947 456.584 96.9519 456.584 93.8182Z"/>
</g>
<path fill="#EA8C8C" d="M90.3584 89.8529L92.3655 104.256L99.4097 98.5054L96.0145 86.7695L90.3584 89.8529Z"/>
<path fill="#E5E5E5" d="M92.3653 94.9546L103.257 92.7676L94.5024 79.2508C94.1445 78.6979 93.55 78.3935 92.9369 78.4494L89.7695 78.7367L92.3653 94.9546Z"/>
<path fill="#000080" d="M113.702 79.7328L128.073 73.7063C129.131 73.2624 129.578 71.876 129.012 70.7923C128.476 69.7681 127.265 69.4646 126.382 70.1333L113.702 79.7328Z"/>
<path fill="#000080" d="M114.224 79.8829C114.042 79.9604 120.481 78.0958 126.685 86.6923C127.168 87.3623 127.906 87.7483 128.68 87.7128C130.91 87.6108 131.843 84.4784 130.077 82.9704C126.551 79.9567 120.968 77.019 114.224 79.8829Z"/>
<path fill="#000080" d="M117.035 75.0418C117.035 75.0418 119.827 73.4501 120.547 68.3878C120.702 67.3029 121.792 66.7231 122.655 67.2666C123.363 67.7117 123.59 68.7187 123.152 69.4764C122.016 71.4422 119.711 74.7778 117.035 75.0418Z"/>
<path fill="#000080" d="M124.416 78.0365C124.503 78.0365 127.297 78.3841 128.825 78.5755C129.346 78.6408 129.8 78.1895 129.8 77.6101C129.8 76.9634 129.239 76.4975 128.677 76.677L124.416 78.0365Z"/>
<path fill="#E5E5E5" d="M66.6373 107.121L94.5184 108.066L92.0907 78.5801L64.4902 81.6969L66.6373 107.121Z"/>
<path fill="#000080" d="M70.7198 119.67L64.4902 81.6962L69.6463 81.1139L71.0075 90.3588C71.5396 92.2088 73.1859 93.3806 74.9305 93.1513L84.333 91.9146C86.1802 91.6714 87.5691 89.9369 87.5617 87.8817L87.0107 78.9473L92.0693 78.3594L98.373 119.671H70.7198V119.67Z"/>
<path fill="#000080" d="M61.7346 120C61.4111 120.001 61.0795 119.991 60.7379 119.972C56.5213 119.739 49.052 116.459 45.7561 108.376C44.1711 104.489 41.3815 94.3655 49.6876 84.3384C53.6401 79.5675 65.6557 72.7993 77.5698 82.3281C77.7308 82.4571 77.767 82.7064 77.6503 82.8843C77.5336 83.0626 77.3083 83.1022 77.1466 82.9736C65.6251 73.7581 54.0297 80.2762 50.2193 84.8762C42.2028 94.554 44.8872 104.305 46.4134 108.048C49.5768 115.805 56.7344 118.953 60.774 119.176C64.06 119.358 66.4486 118.637 67.8711 117.035C69.3405 115.38 69.2297 113.319 69.2282 113.298C69.2146 113.079 69.3638 112.889 69.5621 112.873C69.7582 112.852 69.9328 113.021 69.9476 113.24C69.9543 113.338 70.0905 115.663 68.397 117.581C66.9774 119.188 64.7388 120 61.7346 120Z"/>
<path fill="#E5E5E5" d="M55.4375 103.447L67.6655 97.3964L64.8718 81.6538L60.8066 82.2585C60.3517 82.3266 59.9203 82.5466 59.6016 82.9113C59.3631 83.1847 59.1755 83.5115 59.0536 83.8747L55.4375 103.447Z"/>
<path fill="#F7ADAD" d="M55.4375 103.447L55.9963 105.446C56.5336 107.368 58.4827 108.325 60.1342 107.477L65.8656 104.534L64.9682 97.2173L57.5842 99.2447C55.9091 99.7046 54.9283 101.625 55.4375 103.447Z"/>
<path fill="#F7ADAD" d="M96.7561 95.6873L94.4015 102.697C93.6718 104.869 94.8708 107.247 96.9263 107.705L99.426 108.262C101.398 108.701 103.284 107.171 103.494 104.961L104.476 94.666L96.7561 95.6873Z"/>
<path fill="#5F4E6D" d="M114.15 77.8378L76.7793 91.8276L77.4736 94.0918L114.844 80.1019L114.15 77.8378Z"/>
<path fill="#68D8C4" d="M93.5507 90.1361C93.3979 90.1361 93.2561 90.028 93.2073 89.8586L91.6744 84.5466C91.6138 84.3369 91.7187 84.1129 91.9085 84.046C92.0976 83.9799 92.3011 84.095 92.3616 84.3047L93.8946 89.6167C93.9551 89.8264 93.8502 90.0504 93.6604 90.1173C93.6235 90.1304 93.5869 90.1361 93.5507 90.1361Z"/>
<path fill="#68D8C4" d="M95.4 89.4647C95.2471 89.4647 95.1053 89.3566 95.0565 89.1872L93.524 83.8748C93.4634 83.6651 93.5683 83.4411 93.7581 83.3738C93.9487 83.3073 94.1507 83.4227 94.2112 83.6325L95.7438 88.9449C95.8044 89.1546 95.6995 89.3786 95.5097 89.4459C95.4727 89.4586 95.4362 89.4647 95.4 89.4647Z"/>
<path fill="#68D8C4" d="M97.2549 88.7698C97.102 88.7698 96.9602 88.6617 96.9114 88.4924L95.3785 83.1799C95.3179 82.9702 95.4228 82.7462 95.6126 82.6793C95.8024 82.6132 96.0052 82.7283 96.0657 82.938L97.5987 88.2504C97.6592 88.4601 97.5543 88.6841 97.3645 88.751C97.328 88.7637 97.2914 88.7698 97.2549 88.7698Z"/>
<path fill="#E5E5E5" d="M68.7534 108.809L68.212 111.949C68.1164 112.504 68.4679 113.032 68.9764 113.096L70.3772 113.272C70.8332 113.33 71.2527 112.99 71.3399 112.492L71.9031 109.277L68.7534 108.809Z"/>
<path fill="#CA2D92" d="M67.5178 109.786L73.9135 110.354C74.6296 110.418 75.2807 109.896 75.4491 109.125L78.1493 96.7543L90.587 91.7707C91.0653 91.5794 91.3297 91.0138 91.1949 90.472L89.8887 85.2183C89.738 84.6116 89.1509 84.2762 88.6154 84.4908L70.7188 91.6634C70.2144 91.8654 69.8266 92.3195 69.673 92.8871L65.8349 107.069C65.4863 108.36 66.3025 109.679 67.5178 109.786Z"/>
<path fill="#FACB61" d="M111.953 78.4785L112.616 81.0025C112.748 81.506 113.184 81.8365 113.656 81.7924L116.782 81.5011C117.351 81.4481 117.734 80.8324 117.574 80.226L116.408 75.8043C116.237 75.154 115.542 74.8765 115.034 75.256L112.352 77.2593C111.993 77.5274 111.832 78.0195 111.953 78.4785Z"/>
<path fill="#F7ADAD" d="M83.2846 85.2909L81.9618 86.4693C80.3233 87.9288 78.492 87.8904 76.1455 87.433L73.8068 86.3987C72.8064 85.956 72.1077 84.9404 71.9902 83.7564V72.2196L83.0575 72.0254L84.3541 82.4291C84.4627 83.5222 84.0598 84.601 83.2846 85.2909Z"/>
<path fill="#EA8C8C" d="M71.9902 78.3592C74.3994 79.9297 78.5159 81.1411 84.2222 81.1003L83.402 72.8379L78.7737 73.3985L71.8809 73.3736L71.9902 78.3592Z"/>
<path fill="#EA8C8C" d="M86.4361 70.5451L85.2536 70.6883L84.3662 61.7486L85.5487 61.6054C87.0255 61.4263 88.3542 62.6042 88.5159 64.2359L88.8169 67.2671C88.9787 68.8983 87.9129 70.3664 86.4361 70.5451Z"/>
<path fill="#5F4E6D" d="M86.2749 66.5315C86.3166 66.5254 86.714 66.8318 87.098 67.137C87.3835 67.3639 87.7772 67.1105 87.7388 66.7245L87.3048 59.4463L85.208 59.756L86.2749 66.5315Z"/>
<path fill="#F7ADAD" d="M82.9051 78.028L75.6319 78.6923C73.8733 78.9053 72.2913 77.5029 72.0985 75.5599L70.1568 55.9978C69.9278 53.6933 71.4334 51.6202 73.5192 51.3676L82.0613 50.3325C84.147 50.0799 86.0234 51.743 86.252 54.0475L87.18 72.1403C87.4714 75.0707 85.5573 77.7065 82.9051 78.028Z"/>
<path fill="#EA8C8C" d="M86.374 55.2793C81.8185 56.4907 74.7938 58.3807 70.5078 59.5411L70.9303 63.7987C73.553 63.6694 80.7106 63.2336 86.648 61.775L86.374 55.2793Z"/>
<path fill="#F7ADAD" d="M72.8914 72.1106L71.5678 72.271C70.2543 72.4301 69.0725 71.3827 68.9289 69.9314L68.5633 66.247C68.4193 64.7956 69.3672 63.4904 70.6808 63.3312L72.0043 63.1709L72.8914 72.1106Z"/>
<path fill="#5F4E6D" d="M72.8483 69.0517C73.1556 68.844 73.3336 68.4657 73.3114 68.0683L72.9366 61.3711L70.7197 61.6714L71.373 68.2519C71.4506 69.0353 72.2397 69.4633 72.8483 69.0517Z"/>
<path fill="#000080" d="M69.7663 55.9801L70.4222 62.5863L87.2098 59.2663L86.6802 53.9306C86.4398 51.509 84.4682 49.7611 82.2764 50.0267L73.3001 51.1145C71.1076 51.3797 69.5259 53.5581 69.7663 55.9801Z"/>
<path fill="#CA2D92" d="M70.4221 62.5862L92.1131 59.6219C92.5688 59.5461 92.7752 58.9499 92.482 58.5574C91.6869 57.4929 90.4376 56.978 89.2057 57.2069L70.1514 59.8553L70.4221 62.5862Z"/>
<path fill="#FACB61" d="M67.1816 96.4899C67.1816 96.4899 67.4209 103.264 67.5107 103.231C67.6004 103.198 69.9931 103.925 69.9931 103.925C69.9931 103.925 72.9116 104.421 75.018 104.487C75.2506 104.494 75.7625 104.494 76.2104 104.492C76.6983 104.49 77.1329 104.153 77.3017 103.648L77.4405 103.231L77.6891 103.212C78.2161 103.17 78.6814 102.815 78.9029 102.285L79.8195 99.6002L80.9706 99.7361C81.4167 99.7887 81.8307 99.4721 81.9429 98.9918L82.1316 98.1844C82.2469 97.6919 82.009 97.1827 81.5796 97.0003L77.7995 95.3992C77.7995 95.3992 74.4537 93.6443 70.6511 95.5645C69.8394 95.9741 68.2282 96.4899 67.1816 96.4899Z"/>
<path fill="#E5AD3E" d="M64.1968 96.9906C63.9261 97.1142 63.7629 97.4194 63.7976 97.7409C63.9431 99.0948 64.3733 102.716 64.5868 104.505C64.6488 105.023 65.1411 105.331 65.5757 105.124L68.3377 103.818C68.5947 103.696 68.7502 103.403 68.721 103.096L68.1039 96.6658C68.0596 96.1974 67.6194 95.9077 67.2254 96.0876L64.1968 96.9906Z"/>
<path fill="#FACB61" d="M96.7559 94.6661C96.7559 94.6661 101.392 96.5561 104.443 95.7959C104.443 95.7959 104.29 91.1972 106.507 89.6495C107.506 88.9518 109.52 87.8665 109.019 85.9484C108.471 83.8471 105.61 78.0536 105.61 78.0536C105.427 77.6301 104.97 77.4469 104.584 77.6419L103.616 78.0067C103.264 78.1846 103.084 78.6216 103.194 79.0321L103.435 79.9338L99.2681 82.4121C98.6311 82.6936 98.3375 83.508 98.6252 84.1964L100.076 87.5344L96.7559 94.6661Z"/>
<path fill="#E5AD3E" d="M105.026 97.2549C104.912 97.5618 104.585 97.7629 104.222 97.7474C102.691 97.6809 98.7837 97.3288 96.7589 97.2178C96.1721 97.1856 95.7829 96.6645 95.9738 96.1708L96.6452 92.6349C96.7582 92.3432 97.0717 92.1514 97.4192 92.162L105.208 92.4032C105.737 92.4195 106.102 92.8842 105.936 93.3314L105.026 97.2549Z"/>
<path fill="#000080" d="M49.6633 96.3494C50.5049 96.3494 51.187 95.5957 51.187 94.6659C51.187 93.7361 50.5049 92.9824 49.6633 92.9824C48.8218 92.9824 48.1396 93.7361 48.1396 94.6659C48.1396 95.5957 48.8218 96.3494 49.6633 96.3494Z"/>
<path fill="#000080" d="M51.5967 101.736C52.1306 101.736 52.5635 101.258 52.5635 100.668C52.5635 100.078 52.1306 99.6001 51.5967 99.6001C51.0627 99.6001 50.6299 100.078 50.6299 100.668C50.6299 101.258 51.0627 101.736 51.5967 101.736Z"/>
<path fill="#000080" d="M60.1906 72.0256C60.1906 73.603 59.0332 74.8817 57.6055 74.8817C56.1779 74.8817 55.0205 73.603 55.0205 72.0256C55.0205 70.4482 56.1779 69.1694 57.6055 69.1694C59.0332 69.1694 60.1906 70.4482 60.1906 72.0256Z"/>
<path fill="#000080" d="M67.6651 75.0057C67.6651 75.7944 67.0864 76.4338 66.3726 76.4338C65.6588 76.4338 65.0801 75.7944 65.0801 75.0057C65.0801 74.217 65.6588 73.5776 66.3726 73.5776C67.0861 73.5776 67.6651 74.217 67.6651 75.0057Z"/>
<path fill="#000080" d="M91.7211 75.1861C91.7211 76.0744 91.0693 76.7945 90.2653 76.7945C89.4614 76.7945 88.8096 76.0744 88.8096 75.1861C88.8096 74.2979 89.4614 73.5781 90.2653 73.5781C91.0693 73.5777 91.7211 74.2979 91.7211 75.1861Z"/>
<path fill="#68D8C4" d="M55.9083 108.335C53.5888 107.204 53.474 104.521 53.474 104.521C52.7553 106.102 51.5367 107.078 49.9639 107.187C51.4599 107.965 52.2346 109.275 52.3938 111.055C52.3938 111.055 53.1667 108.566 55.9083 108.335Z"/>
<path fill="#68D8C4" d="M56.7477 88.2531C55.2646 88.1988 54.6715 86.7695 54.6715 86.7695C54.594 87.8014 54.1254 88.626 53.293 89.0646C54.259 89.1258 54.9389 89.6501 55.3772 90.5784C55.3772 90.5784 55.3049 89.0406 56.7477 88.2531Z"/>
<path fill="#68D8C4" d="M51.2656 79.1052C50.0628 78.3092 50.1659 76.8276 50.1659 76.8276C49.6736 77.6408 48.9443 78.0847 48.0742 78.0256C48.8471 78.5654 49.191 79.3431 49.1681 80.3325C49.1681 80.3325 49.7467 79.0248 51.2656 79.1052Z"/>
<g clip-path="url(#clip0_228_1016)">
<path fill="#0B0B0C" d="M77.5218 67.6117C78.1779 67.7393 78.8177 67.288 78.9507 66.6038C79.0838 65.9195 78.6597 65.2614 78.0035 65.1338C77.3474 65.0063 76.7076 65.4575 76.5745 66.1418C76.4415 66.826 76.8656 67.4842 77.5218 67.6117Z"/>
<path fill="#0B0B0C" d="M82.3566 67.2502C82.9999 67.3753 83.6272 66.9328 83.7577 66.2619C83.8881 65.5911 83.4723 64.9458 82.8289 64.8207C82.1856 64.6956 81.5583 65.1381 81.4279 65.809C81.2974 66.4799 81.7132 67.1251 82.3566 67.2502Z"/>
<path fill="#0D0D0E" d="M83.1131 71.0802C81.8692 72.9341 80.0091 73.4245 78.6507 71.9805C78.6055 71.9324 78.5342 71.9431 78.4916 72.0036C78.4488 72.0653 78.4508 72.1541 78.4961 72.2021C79.9518 73.751 81.9467 73.2365 83.2799 71.2501C83.3215 71.1883 83.3182 71.0992 83.2721 71.0522C83.2259 71.0064 83.1548 71.0183 83.1131 71.0802Z" clip-rule="evenodd" fill-rule="evenodd"/>
</g>
<path fill="#CA2D92" d="M445 88L447.828 91.5147C449.391 93.4558 449.391 96.6031 447.828 98.5442C446.266 100.485 443.734 100.485 442.172 98.5442C440.609 96.6031 440.609 93.4558 442.172 91.5147L445 88ZM445 97.1256C444.068 97.1256 443.313 96.1871 443.313 95.0294H442.47C442.47 96.7659 443.603 98.1736 445 98.1736V97.1256Z" clip-rule="evenodd" fill-rule="evenodd"/>
<path fill="#CA2D92" d="M87 24L89.8284 27.5147C91.3905 29.4558 91.3905 32.6031 89.8284 34.5442C88.2663 36.4853 85.7337 36.4853 84.1716 34.5442C82.6095 32.6031 82.6095 29.4558 84.1716 27.5147L87 24ZM87 33.1256C86.0684 33.1256 85.3132 32.1871 85.3132 31.0294H84.4698C84.4698 32.7659 85.6026 34.1736 87 34.1736V33.1256Z" clip-rule="evenodd" fill-rule="evenodd"/>
<path fill="#CA2D92" d="M9.99998 84L12.8284 87.5147C14.3905 89.4558 14.3905 92.6031 12.8284 94.5442C11.2663 96.4853 8.73367 96.4853 7.17157 94.5442C5.60948 92.6031 5.60948 89.4558 7.17157 87.5147L9.99998 84ZM9.99998 93.1256C9.06839 93.1256 8.31318 92.1871 8.31318 91.0294H7.46977C7.46977 92.7659 8.60259 94.1736 9.99998 94.1736V93.1256Z" clip-rule="evenodd" fill-rule="evenodd"/>
<g filter="url(#filter1_d_228_1016)">
<path fill="#000080" d="M177.998 87.7299C178.246 87.3703 178.611 87.1344 179.015 87.0739C179.419 87.0135 179.828 87.1333 180.153 87.4072C180.344 87.5746 180.498 87.7882 180.603 88.0319L193.833 117.455C194.021 117.872 194.051 118.354 193.919 118.797C193.786 119.239 193.501 119.604 193.126 119.813C192.907 119.936 192.665 120 192.419 119.999H173.986C173.691 120.008 173.4 119.92 173.148 119.747C172.897 119.575 172.697 119.324 172.572 119.027C168.593 109.892 171.005 96.0041 177.998 87.7299Z"/>
<path fill="#000080" d="M168.273 60.9547C171.571 66.5967 173.494 73.0949 173.851 79.8117C174.209 86.5286 172.989 93.2334 170.313 99.2684L161.425 119.027C161.294 119.319 161.092 119.565 160.843 119.736C160.593 119.908 160.305 119.999 160.011 119.999H141.582C141.374 120 141.168 119.955 140.976 119.867C140.784 119.778 140.609 119.649 140.462 119.486C140.315 119.322 140.199 119.128 140.119 118.915C140.04 118.701 140 118.472 140 118.241C140 117.969 140.056 117.7 140.164 117.455L165.583 60.9465C165.703 60.6633 165.894 60.424 166.132 60.2565C166.37 60.0889 166.646 60 166.928 60C167.21 60 167.486 60.0889 167.724 60.2565C167.962 60.424 168.153 60.6633 168.273 60.9465V60.9547Z"/>
</g>
<defs>
<filter color-interpolation-filters="sRGB" filterUnits="userSpaceOnUse" height="56.6094" width="281.038" y="71.0298" x="189.056" id="filter0_d_228_1016">
<feFlood result="BackgroundImageFix" flood-opacity="0"/>
<feColorMatrix result="hardAlpha" values="0 0 0 0 0 0 0 0 0 0 0 0 0 0 0 0 0 0 127 0" type="matrix" in="SourceAlpha"/>
<feOffset dy="4"/>
<feGaussianBlur stdDeviation="2"/>
<feComposite operator="out" in2="hardAlpha"/>
<feColorMatrix values="0 0 0 0 0 0 0 0 0 0 0 0 0 0 0 0 0 0 0.25 0" type="matrix"/>
<feBlend result="effect1_dropShadow_228_1016" in2="BackgroundImageFix" mode="normal"/>
<feBlend result="shape" in2="effect1_dropShadow_228_1016" in="SourceGraphic" mode="normal"/>
</filter>
<filter color-interpolation-filters="sRGB" filterUnits="userSpaceOnUse" height="70" width="62" y="60" x="136" id="filter1_d_228_1016">
<feFlood result="BackgroundImageFix" flood-opacity="0"/>
<feColorMatrix result="hardAlpha" values="0 0 0 0 0 0 0 0 0 0 0 0 0 0 0 0 0 0 127 0" type="matrix" in="SourceAlpha"/>
<feOffset dy="4"/>
<feGaussianBlur stdDeviation="2"/>
<feComposite operator="out" in2="hardAlpha"/>
<feColorMatrix values="0 0 0 0 0 0 0 0 0 0 0 0 0 0 0 0 0 0 0.25 0" type="matrix"/>
<feBlend result="effect1_dropShadow_228_1016" in2="BackgroundImageFix" mode="normal"/>
<feBlend result="shape" in2="effect1_dropShadow_228_1016" in="SourceGraphic" mode="normal"/>
</filter>
<clipPath id="clip0_228_1016">
<rect transform="translate(75.3857 63.0474) rotate(11.0026)" fill="white" height="15.995" width="14.2196"/>
</clipPath>
</defs>
</svg>